<?xml version="1.0" encoding="iso-8859-1"?>
<!-- Generator: Adobe Illustrator 16.0.0, SVG Export Plug-In . SVG Version: 6.00 Build 0)  -->
<!DOCTYPE svg PUBLIC "-//W3C//DTD SVG 1.1//EN" "http://www.w3.org/Graphics/SVG/1.1/DTD/svg11.dtd">
<svg version="1.1" id="Capa_1" xmlns="http://www.w3.org/2000/svg" xmlns:xlink="http://www.w3.org/1999/xlink" x="0px" y="0px"
	 width="35.001px" height="35.001px" viewBox="0 0 35.001 35.001" style="enable-background:new 0 0 35.001 35.001;"
	 xml:space="preserve">
<g>
	<path d="M35.001,26.705c0-2.505-1.651-4.636-3.968-5.468c0.535-0.523,0.919-1.312,1.094-2.405c0.234,0.043,0.546-0.201,0.652-0.61
		c0.111-0.421,0.238-1.128,0-1.189c-0.071-0.019-0.146-0.004-0.219,0.033v-1.17c0.039-1.271-0.136-2.499-1.521-3.031
		c-0.253-0.521-0.271-0.994-0.271-0.994c-0.623,0.562-2.994,0.79-2.994,0.79l0.027,0.008c-3.004,0.309-2.57,1.389-2.57,3.228v1.17
		c-0.072-0.037-0.146-0.052-0.219-0.033c-0.24,0.062-0.166,0.743-0.057,1.164c0.107,0.413,0.477,0.685,0.712,0.637
		c0.181,1.149,0.539,1.917,1.033,2.418c-0.917,0.335-1.722,0.881-2.365,1.565c-0.979-1.071-2.228-1.916-3.647-2.428
		c0.793-0.773,1.361-1.94,1.623-3.564c0.351,0.062,0.81-0.298,0.967-0.905c0.164-0.624,0.354-1.672-0.002-1.767
		c-0.104-0.028-0.215-0.007-0.322,0.049v-1.734c0.059-1.886-0.2-3.706-2.258-4.494c-0.375-0.772-0.398-1.475-0.398-1.475
		c-0.926,0.834-4.44,1.172-4.44,1.172l0.04,0.011c-4.455,0.457-3.812,2.059-3.812,4.786v1.734c-0.109-0.056-0.218-0.077-0.324-0.049
		c-0.356,0.095-0.248,1.103-0.084,1.728c0.16,0.612,0.707,1.015,1.057,0.942c0.266,1.707,0.798,2.842,1.531,3.585
		c-1.401,0.513-2.632,1.351-3.601,2.409c-0.652-0.691-1.467-1.243-2.397-1.577c0.535-0.523,0.919-1.312,1.095-2.405
		c0.235,0.043,0.545-0.201,0.652-0.609c0.111-0.422,0.239-1.128-0.001-1.19c-0.071-0.019-0.145-0.004-0.218,0.033v-1.17
		c0.04-1.271-0.135-2.499-1.521-3.031c-0.252-0.521-0.27-0.994-0.27-0.994c-0.625,0.562-2.994,0.79-2.994,0.79l0.027,0.008
		c-3.005,0.309-2.571,1.389-2.571,3.228v1.17c-0.073-0.037-0.147-0.052-0.219-0.033c-0.24,0.062-0.167,0.744-0.056,1.165
		c0.108,0.413,0.477,0.684,0.712,0.636c0.18,1.15,0.539,1.917,1.033,2.418C1.637,22.097,0,24.218,0,26.711h8.63
		c-0.128,0.578-0.201,1.177-0.201,1.791H26.57c0-0.614-0.072-1.213-0.2-1.791h8.631V26.705z"/>
</g>
<g>
</g>
<g>
</g>
<g>
</g>
<g>
</g>
<g>
</g>
<g>
</g>
<g>
</g>
<g>
</g>
<g>
</g>
<g>
</g>
<g>
</g>
<g>
</g>
<g>
</g>
<g>
</g>
<g>
</g>
</svg>
